<?xml version="1.0" standalone="yes"?>
<svg xmlns="http://www.w3.org/2000/svg" width="2200" height="2200">
<path style="fill:#383838; stroke:none;" d="M1328 620.533C1310.06 624.867 1317.27 653.801 1321.33 666C1328.73 688.205 1348.18 704.513 1348.96 729C1349.35 741.193 1346.16 753.454 1340.13 764C1336.92 769.603 1332.54 774.412 1329.34 780C1323.7 789.841 1319.58 800.799 1317.75 812C1315.47 825.978 1316.37 846.876 1336 843.786C1347.17 842.028 1347.16 831.798 1348.43 823C1349.47 815.763 1351.18 808.632 1354.32 802C1359.81 790.406 1368.76 781.039 1373.55 769C1382.98 745.307 1383.24 717.539 1373.13 694C1368.61 683.493 1361.33 674.938 1355.86 665C1351.77 657.552 1349.63 649.369 1348.43 641C1347.86 637.061 1348.51 632.745 1346.99 629.001C1344.01 621.683 1335.34 618.76 1328 620.533M1487 620.858C1478.55 624.296 1477.11 633.07 1477.83 641C1478.78 651.458 1480.27 661.095 1484.06 671C1491.88 691.413 1508.98 705.858 1509.96 729C1510.46 740.787 1507 753.851 1501.12 764C1498.08 769.255 1493.92 773.746 1490.88 779C1484.92 789.28 1480.12 801.205 1478.3 813C1476.48 824.733 1475.66 843.099 1492 843.956C1493.97 844.059 1496.08 844.059 1498 843.581C1508.04 841.08 1508.26 832.353 1509.29 824C1510.16 816.878 1511.73 809.517 1514.78 803C1520.54 790.712 1529.85 780.712 1534.98 768C1544.3 744.945 1544.35 717.864 1534.57 695C1530.35 685.124 1523.99 677.08 1518.46 668C1513.56 659.95 1511.25 651.219 1509.75 642C1509.02 637.469 1509.65 632.171 1507.54 628.004C1503.89 620.787 1494.46 617.824 1487 620.858M1650 620.533C1633.87 624.454 1638.83 646.417 1641.42 658C1642.1 660.997 1642.68 664.059 1643.57 667C1647.64 680.509 1657.13 690.824 1663.69 703C1668.2 711.366 1670.55 720.519 1670.96 730C1671.88 751.225 1659.88 764.586 1650.31 782C1644.31 792.923 1641.34 803.776 1639.44 816C1637.32 829.602 1640.3 846.572 1658 843.786C1670.9 841.756 1670.02 828.762 1671.29 819C1672.06 813.095 1673.82 807.397 1676.31 802C1681.67 790.367 1690.68 781.009 1695.55 769C1705.34 744.819 1705.47 716.924 1694.69 693C1690.28 683.225 1683.42 675.298 1678.31 666C1675.08 660.121 1672.63 653.617 1671.46 647C1669.58 636.321 1671.56 620.43 1656 620.022C1654.01 619.97 1651.95 620.06 1650 620.533M381 983C395.516 982.95 399.233 971.716 401 959C403.536 940.751 405.101 923.801 398.782 906C391.176 884.569 381.928 863.298 369.772 844C350.926 814.085 328.302 786.369 311.781 755C302.372 737.137 294.35 707.6 315.001 693.854C331.432 682.917 354.596 694.213 357.561 713C358.671 720.036 355.102 732.835 359.742 738.606C362.411 741.926 366.244 741.472 370 741.166C376.137 740.665 382.951 739.773 389 739.683C392.833 739.626 395.985 742.476 399.906 740.951C406.847 738.25 406.133 729.018 405.985 723C405.564 705.82 402.893 689.65 393.564 675C377.216 649.327 347.664 642.322 319 645.714C309.981 646.782 302.194 647.917 294 652.324C277.839 661.015 268.46 676.354 262.758 693C261.598 696.388 259.669 699.393 259.188 703C250.332 769.505 301.725 823.49 333.399 876C343.49 892.73 356.302 912.33 359.13 932C360.289 940.061 360.192 950.706 356.034 957.996C348.772 970.729 329.414 972.521 318.001 964.362C310.537 959.026 307.062 950.914 306.171 942C305.275 933.051 309.159 918.111 300.786 911.728C295.722 907.867 289.698 910.274 284 909.827C277.057 909.282 263.885 907.882 258.133 912.514C253.654 916.121 254.002 921.81 254 927C253.996 938.375 255.519 950.001 258.489 961C260.346 967.875 262.807 974.867 266.453 981C282.679 1008.29 310.229 1015.35 340 1015C349.327 1014.89 357.472 1012.3 366 1008.88C370.249 1007.18 373.555 1006.38 376.907 1002.96C380.314 999.476 384.277 994.32 383.813 989.129C383.611 986.867 381.971 984.975 381 983M480 651L481 655C472.862 651.469 458.072 647.054 453.603 659.004C452.042 663.18 453.153 668.615 452.961 673C452.356 686.805 454.961 700.138 455.91 714C457.802 741.615 456.311 769.468 456.985 797C457.298 809.777 454.517 823.698 459 836C456.396 838.276 457.001 841.683 457 845C456.997 851.732 458.201 858.385 458.277 865C458.308 867.723 457.132 870.266 457.144 873C457.213 887.943 457.485 902.965 457.965 918C458.171 924.486 456.177 933.82 458.742 939.871C459.773 942.305 462.314 944.03 464 946L459 946C457.24 955.479 459.476 963.643 459.741 973C459.904 978.783 459.308 985.195 458.91 991C458.483 997.246 456.442 1003.77 462.189 1008.35C468.737 1013.56 482.109 1011 490 1011L557 1011C564.655 1011 577.125 1013.29 583.838 1008.86C588.297 1005.92 588.066 994.957 589 990C585.427 989.274 583.698 988.242 582 985L588 987C589.455 981.925 589.035 969.252 583.941 966.457C577.659 963.01 566.963 965.011 560 965L508 965C508 957.781 508.575 950.173 507.826 942.999C507.331 938.266 505.271 933.777 505.13 929C504.963 923.35 506.665 917.674 506.545 912C506.473 908.596 506.828 904.281 506.016 901C505.342 898.277 503.416 895.947 503.357 893.054C503.306 890.5 505.265 888.354 506 886L501 886L501 882C503.205 881.906 504.894 881.644 507 881C505.832 874.711 507.382 870.118 507.62 864C507.739 860.954 506.564 858.021 506.379 855C506.176 851.693 506.931 848.322 507 845C513.946 846.285 520.075 844.565 527 844.209C533.515 843.874 540.403 845 547 845C551.963 845 558.6 846.129 562.956 843.258C565.516 841.57 567.224 839.004 567.772 836C568.43 832.392 567.758 828.626 567.71 825C567.608 817.332 570.57 805.932 562.895 800.858C558.963 798.258 553.474 799 549 799C539.334 799 529.666 798.954 520 799.001C515.882 799.021 507.79 801.612 505.603 796.772C504.459 794.239 505 790.704 505 788L505 770C505 762.279 504.095 754.674 504.004 747C503.837 732.989 504.386 720.199 499 707L503 707C503.002 704.327 502.462 700.663 504.028 698.318C506.963 693.922 518.398 696 523 696C535.997 696 549.004 696.151 562 695.996C566.994 695.937 574.835 696.017 578.775 692.566C584.934 687.173 583 676.273 583 669C583 665.688 583.226 662.251 582.471 659.001C581.62 655.338 579.755 651.724 575.957 650.514C572.592 649.442 568.485 650 565 650C557.657 650 550.336 650.158 543 650.291C522.032 650.671 501.023 651 480 651M662 651L663 655C654.875 651.475 639.686 647.807 635.009 659.015C632.981 663.876 634.607 669.008 634.741 674C635.08 686.697 636.212 699.263 637.714 712C638.457 718.289 637.763 724.685 638.039 731C639.002 752.982 638.971 775.088 638.971 797C638.971 809.331 636.041 824.296 641 836C638.396 838.276 639.002 841.684 639 845C638.997 851.462 639.737 857.614 640.126 864C640.331 867.368 639.03 870.615 639.033 874C639.048 888.662 639.496 903.311 639.965 918C640.171 924.486 638.177 933.82 640.742 939.871C641.773 942.306 644.314 944.03 646 946C639.384 946.528 640 951.442 640 957C640 967.846 641.846 978.147 640.83 989C640.296 994.714 638.347 1001.98 642.434 1006.87C645.672 1010.74 650.329 1010.98 655 1011L679 1011L742 1011C748.955 1011 760.933 1013.14 766.644 1008.16C770.018 1005.21 770.43 994.418 771 990C768.531 989.574 766.355 988.868 764 988L765 984L770 987C771.416 982.025 770.854 969.255 765.891 966.457C759.711 962.972 748.886 965.011 742 965L690 965C690 958.085 690.473 950.876 689.826 943.996C689.319 938.599 687.168 933.435 687.054 928C686.942 922.641 688.658 917.365 688.545 912C688.473 908.596 688.828 904.281 688.016 901C687.342 898.277 685.416 895.947 685.357 893.054C685.306 890.499 687.265 888.354 688 886C686.122 886.176 684.8 886.438 683 887L683 882C690.082 882.614 687.776 876.974 688.119 872C688.307 869.275 689.554 866.729 689.606 864C689.659 861.264 688.428 858.71 688.224 856C687.945 852.309 689.085 848.538 690 845C696.485 846.526 702.49 844.544 709 844.209C715.837 843.858 723.077 845 730 845C734.685 845 740.845 846.017 744.942 843.258C747.793 841.338 749.164 838.298 749.695 835C750.233 831.659 749.754 828.349 749.71 825C749.609 817.438 752.448 805.894 744.892 800.858C741.21 798.404 736.199 799 732 799C722.692 798.999 713.299 798.632 704 799.039C699.561 799.234 691.172 802.135 688.028 797.566C686.449 795.273 687.001 791.625 687 789L687 770C687 755.868 687.169 741.063 685.83 727C685.175 720.12 682.998 713.756 682 707L685 707C685.002 704.327 684.462 700.663 686.028 698.318C688.963 693.922 700.398 696 705 696C718.774 696 733.32 697.329 747 695.714C751.42 695.193 757.241 695.661 760.775 692.566C767.7 686.503 766.226 667.206 764.319 659.001C763.461 655.307 761.829 651.748 757.957 650.514C753.752 649.174 748.366 650 744 650C733.936 650 724.02 650.227 714 650.911C696.827 652.081 679.216 651 662 651M645 825C645.957 826.516 646.387 827.339 647 829C645.004 827.756 644.442 827.308 645 825M463 826C464.195 827.223 464.317 827.42 465 829C463.006 828.153 462.301 827.993 463 826M1332 1063C1332 1049.09 1327.9 1028.08 1345 1023C1343.65 1016.01 1338.79 1010.08 1335.28 1004C1327.33 990.216 1318.99 976.647 1310.8 963C1306.57 955.942 1298.5 946.813 1300.54 938C1303.52 925.055 1320.03 921.119 1328.47 931.094C1334.59 938.326 1339.14 947.804 1343.85 956C1350.82 968.114 1358.21 980.016 1365.4 992C1370.71 1000.85 1379.07 1010.46 1380 1021C1393 1021 1415.94 1016.6 1425.2 1028.19C1429.14 1033.12 1429 1039.03 1429 1045L1429 1069L1461 1069L1461 1045C1461 1040.25 1460.65 1035.28 1463.09 1031C1471.6 1016.1 1495.64 1021 1510 1021C1507.68 1013.71 1502.22 1007.32 1498 1001L1474 965C1469.29 957.934 1460.78 949.116 1461.5 940C1462.39 928.648 1475.35 921.638 1484.99 927.483C1492.02 931.748 1496.16 940.374 1500.66 947C1512.11 963.862 1522.82 981.251 1534.44 998C1541.73 1008.52 1552.78 1020.69 1556.56 1033C1559.95 1044.05 1558 1057.54 1558 1069L1590 1069L1590 1045C1590 1038.65 1589.73 1033.09 1594.21 1028.04C1600.66 1020.78 1609.05 1021 1618 1021L1661 1021C1668.45 1021 1676.29 1021.29 1681.79 1027.11C1690.08 1035.89 1687 1051.93 1687 1063C1704.94 1060.73 1723.04 1059.87 1741 1057.71C1776.23 1053.49 1811.12 1047.98 1846 1041.46C1872.87 1036.43 1900.64 1032.87 1923 1015.76C1958.92 988.292 1978.37 923.246 1937 891.236C1931.88 887.279 1926.1 883.764 1920 881.544C1890.2 870.692 1858 884.309 1828 888.728C1764.38 898.101 1701.12 906.519 1637 910.911C1612.39 912.596 1587.67 912.41 1563 913.015C1515.13 914.187 1466.88 915.057 1419 912.961C1372.88 910.941 1326.98 906.28 1281 901.83C1244.54 898.302 1208.12 891.623 1172 885.565C1162 883.887 1151.95 881.944 1142 879.999C1134.63 878.558 1127.59 876.57 1120 877.089C1111.3 877.685 1102.88 879.565 1095 883.299C1088.81 886.234 1083.19 890.085 1078.17 894.754C1041.44 928.897 1062.01 989.825 1097 1016.5C1119.87 1033.93 1149.51 1037.47 1177 1042.42C1212.81 1048.88 1248.77 1054.66 1285 1058.17C1300.62 1059.68 1316.32 1062.33 1332 1063M1134 909.514C1146.32 905.816 1153.1 915.926 1158.55 925C1167.75 940.316 1176.73 955.764 1186.06 971C1191.53 979.93 1198.67 989.255 1202.52 999C1205.92 1007.6 1201.83 1017.82 1193 1020.89C1180.6 1025.21 1173.97 1015.27 1168.4 1006L1139.6 958C1134.71 949.841 1128.77 941.702 1124.9 933C1120.99 924.189 1123.84 912.565 1134 909.514M1830 909.34C1841.94 908.1 1847.43 919.382 1852.6 928C1862.39 944.313 1872.22 960.602 1881.86 977C1886.24 984.446 1892.17 991.785 1895.03 1000C1898.49 1009.92 1892.37 1020.2 1882 1021.7C1870.14 1023.41 1864.8 1012.66 1859.6 1004L1831.4 957C1826.66 949.094 1820.06 940.692 1816.97 932C1813.43 922.05 1818.97 910.487 1830 909.34M396 915C394.212 916.421 393.294 916.697 391 917C392.872 915.277 393.464 915.033 396 915M382 917L382 919L380 919L380 917L382 917M1653 925.418C1664.98 924.153 1670.23 935.391 1675.4 944L1703.6 991C1708.36 998.938 1714.88 1007.21 1717.89 1016C1721.31 1025.97 1715.56 1036.18 1705 1037.7C1692.95 1039.43 1687.67 1028.79 1682.4 1020C1672.42 1003.36 1662.32 986.783 1652.58 970C1648.45 962.898 1642.73 955.764 1639.97 948C1636.45 938.116 1641.98 926.582 1653 925.418M1365 1054L1365 1287L1365 1354L1365 1373C1365 1375.74 1364.49 1379.21 1365.6 1381.79C1366.86 1384.67 1370.44 1386.1 1373 1387.58L1393 1399L1448 1430.57C1456.04 1435.18 1466.53 1439.04 1472.79 1446.04C1479.68 1453.76 1477 1467.38 1477 1477L1477 1553L1542 1553L1542 1476C1542 1466.72 1539.49 1453.54 1546.22 1446.09C1552.45 1439.2 1563.03 1435.15 1571 1430.58C1588.99 1420.27 1606.98 1409.97 1625 1399.72L1645 1388.28C1647.87 1386.65 1652 1385.02 1653.4 1381.79C1654.51 1379.21 1654 1375.74 1654 1373L1654 1354L1654 1287L1654 1054L1623 1054L1623 1240L1623 1284C1623 1292.19 1623.13 1300.7 1616.9 1306.89C1611.04 1312.7 1603.62 1312 1596 1312L1559 1312C1552.6 1312 1545.25 1312.99 1539 1311.47C1532.96 1310 1528.06 1304.88 1526.3 1299C1523.69 1290.25 1525 1280.03 1525 1271L1525 1221L1525 1054L1494 1054L1494 1223L1494 1274C1494 1281.78 1495.54 1291.51 1493.2 1299C1491.38 1304.8 1485.91 1310.03 1480 1311.47C1473.75 1312.99 1466.4 1312 1460 1312L1423 1312C1415.35 1312 1408.06 1312.64 1402.19 1306.81C1395.99 1300.67 1397 1293.01 1397 1285L1397 1241L1397 1054L1365 1054M538 1187.43C498.273 1192.83 471.016 1222.56 453.753 1257C422.599 1319.16 421.657 1399 447.604 1463C464.017 1503.48 501.349 1552.65 551 1546.71C592.608 1541.74 620.253 1511.99 638.247 1476C669.414 1413.67 669.252 1336.48 645.05 1272C628.994 1229.22 588.943 1180.49 538 1187.43M680 1274C684.488 1268.07 687.119 1260.39 691.065 1254C701.715 1236.75 716.718 1219.59 736 1211.93C742.068 1209.51 748.477 1208.03 755 1208C799.764 1207.78 826.281 1249.5 840.424 1287C844.381 1297.49 848.509 1309.73 849 1321C835.797 1317.23 825.099 1312.6 811 1315.08C803.924 1316.33 797.968 1319.05 792 1323C755.141 1347.44 765.208 1405.25 807 1417.79C813.85 1419.85 819.981 1420 827 1419.16C834.922 1418.2 842.076 1416.03 849 1412C848.601 1421.16 845.371 1430.24 842.859 1439C834.863 1466.89 819.117 1496.01 795 1512.96C779.08 1524.16 758.986 1529.82 740 1523.06C720.418 1516.09 704.995 1501.23 693.864 1484C688.944 1476.38 685.736 1466.92 680 1460C677.279 1465.11 675.755 1470.65 673.596 1476C672.481 1478.77 670.528 1481.91 670.912 1485C671.356 1488.58 674.324 1492.06 676.218 1495C681.866 1503.77 688.634 1511.64 696 1519C723.521 1546.49 764.332 1556.17 799 1535.55C823.442 1521.01 839.517 1498.07 851.755 1473C867.946 1439.83 874 1402.66 874 1366C874 1335.47 869.774 1304.55 858.448 1276C845.213 1242.64 824.846 1209.61 791 1194.18C754.278 1177.44 713.792 1192.07 688.754 1222C683.704 1228.04 678.954 1234.3 674.808 1241C673.331 1243.39 671.113 1246.1 670.9 1249C670.672 1252.09 672.793 1255.25 673.938 1258C676.132 1263.27 677.689 1268.79 680 1274M275 1276L283 1274C280.618 1276.54 276.892 1277.9 275.179 1281.06C272.812 1285.42 274 1292.2 274 1297C274 1309 274.057 1321 273.999 1333C273.859 1361.99 274 1390.94 274 1420C274 1434.67 272.326 1450.45 274.133 1465C274.731 1469.81 277.338 1474.11 278 1479C276.703 1477.18 275.865 1476.15 274 1475C274 1482.95 273.509 1491.07 274.09 1499C274.312 1502.02 275.48 1504.97 275.491 1508C275.5 1510.72 274.354 1513.3 274.104 1516C273.617 1521.26 274 1526.72 274 1532C274 1538.34 273.238 1548.22 279.109 1552.4C282.425 1554.75 287.169 1553.96 291 1554C295.028 1554.05 298.981 1555.03 303 1554.95C307.718 1554.85 312.301 1553.37 317 1553C318.098 1550.33 319.854 1547.81 320.571 1545C323.325 1534.22 321 1520.12 321 1509C321 1488.94 321.331 1469.05 320.995 1449C320.926 1444.83 319.334 1441.11 319.054 1437C318.52 1429.18 319.792 1421.71 320.715 1414C321.613 1406.49 318.696 1396.11 321.603 1389.11C324.258 1382.71 335.604 1386 341 1386L367 1386C371.453 1386 376.257 1386.43 379.501 1382.77C383.965 1377.73 383 1370.2 383 1364C383 1358.97 382.99 1353.89 381.645 1349C378.661 1338.15 368.496 1340.66 360 1340.87C352.115 1341.07 343.966 1340 336 1340C332.306 1340 325.479 1341.27 322.603 1338.4C318.748 1334.54 321 1322.1 321 1317C321 1299.69 321.438 1282.31 320.985 1265C320.888 1261.26 319.249 1257.68 319.333 1254C319.418 1250.28 320.126 1240.26 322.603 1237.51C325.872 1233.89 334.489 1234.06 339 1234C345.974 1233.92 353.064 1232.31 360 1232.61C366.036 1232.87 371.854 1234 378 1234C384.648 1234 394.887 1235.18 399.258 1228.89C403.134 1223.31 399.499 1214.17 399.028 1208C398.704 1203.76 401.506 1200.33 400.191 1196.02C397.29 1186.5 381.69 1188.83 374 1189.01C350.367 1189.59 326.7 1189.89 303 1190C298.303 1190.02 293.687 1191.1 289 1190.96C284.594 1190.82 280.007 1189.23 276.279 1192.51C270.86 1197.28 273 1208.55 273 1215C273 1235.31 275 1255.69 275 1276M920 1190.48C905.782 1193.42 911 1209.48 911 1220L911 1312C911 1371.06 911.168 1430.04 912.741 1489C913.15 1504.33 911.728 1519.61 912.816 1535C913.206 1540.53 910.237 1546.97 914.514 1551.7C919.474 1557.18 931.386 1555 938 1555C954.962 1555 972.085 1555.66 989 1554.51C994.652 1554.13 1000.39 1554.62 1006 1553.49C1043.4 1545.94 1063.28 1511.29 1064.54 1475C1064.88 1465.32 1064.61 1454.69 1063.95 1445C1063.74 1441.93 1062.4 1439.07 1062.41 1436C1062.48 1424.7 1064 1413.39 1064 1402L1064 1316C1064 1297.31 1064.94 1278.52 1062.27 1260C1059.1 1237.96 1054.46 1217.24 1035 1203.62C1015.03 1189.64 989.276 1190 966 1190L936 1190C930.779 1190 925.139 1189.42 920 1190.48M637 1322C627.483 1318.04 617.634 1313.49 607 1314.09C599.771 1314.51 592.343 1316.37 586 1319.86C551.222 1339.01 546.943 1386.6 580 1409.96C585.703 1413.99 592.189 1417 599 1418.57C612.582 1421.71 624.582 1417.09 637 1412C636.173 1422.47 633.175 1433.12 629.691 1443C615.955 1481.95 589.539 1528.05 542 1525.96C535.1 1525.66 528.299 1523.92 522 1521.14C514.311 1517.75 507.338 1513.23 501 1507.71C484.869 1493.68 474.377 1474.56 466.551 1455C453.036 1421.21 449.456 1385.15 451.039 1349C452.423 1317.41 461.084 1284.49 476.719 1257C485.962 1240.75 498.432 1225.28 515 1216.04C520.704 1212.86 526.739 1211 533 1209.29C575.825 1197.65 607.595 1239.44 623.219 1273C626.057 1279.09 628.408 1285.61 630.491 1292C633.651 1301.69 636.561 1311.76 637 1322M961 1508C961 1499.58 959.904 1491.27 959.7 1483C959.406 1471.09 961.691 1459.01 961.985 1447C962.297 1434.26 961.325 1421.67 961.015 1409C960.516 1388.64 960.702 1368.07 958 1348C955.314 1348.5 952.73 1348.88 950 1349C952.198 1344.99 955.695 1343.27 960 1342C955.501 1332.99 959.952 1321.84 959.999 1312C960.12 1287 960 1262 960 1237C973.327 1237 996.953 1232.23 1006.21 1244.09C1011.63 1251.04 1012.37 1258.66 1013.17 1267C1014.4 1279.88 1013 1293 1013 1306C1013 1351.07 1015 1396.01 1015 1441C1015 1459.69 1016.75 1485.15 1004.96 1500.96C996.274 1512.59 973.681 1508.03 961 1508M604 1335.3C636.774 1330.46 655.58 1373.56 628 1393.21C623.31 1396.55 617.654 1398 612 1398.71C608.135 1399.19 604.703 1398.47 601 1397.42C569.939 1388.66 570.45 1340.26 604 1335.3M815 1335.3C819.688 1334.57 825.447 1334.51 830 1335.9C834.3 1337.22 838.574 1339.28 841.996 1342.21C863.115 1360.33 852.195 1394.79 825 1398.7C791.894 1403.46 777.723 1357.89 804 1340.09C807.344 1337.83 810.973 1335.93 815 1335.3M290 1443L290 1445L287 1445L287 1443L290 1443M287 1450L287 1452L285 1452L285 1450L287 1450M1011 1512L1011 1515L1008 1515L1008 1512L1011 1512M1024 1524.33C1024.77 1524.33 1024.16 1524.83 1023.67 1524.67L1024 1524.33z"/>
</svg>
